<?xml version="1.0" standalone="no"?>
<!DOCTYPE svg PUBLIC "-//W3C//DTD SVG 20010904//EN"
 "http://www.w3.org/TR/2001/REC-SVG-20010904/DTD/svg10.dtd">
<svg version="1.0" xmlns="http://www.w3.org/2000/svg"
 width="462.000000pt" height="462.000000pt" viewBox="0 0 462.000000 462.000000"
 preserveAspectRatio="xMidYMid meet">
<metadata>
Created by potrace 1.14, written by Peter Selinger 2001-2017
</metadata>
<g transform="translate(0.000000,462.000000) scale(0.100000,-0.100000)"
fill="#000000" stroke="none">
<path d="M2100 4610 c-438 -43 -834 -198 -1190 -464 -123 -92 -346 -315 -438
-438 -712 -953 -606 -2259 249 -3072 348 -330 773 -538 1259 -613 160 -24 501
-24 660 0 499 78 918 284 1274 627 792 762 933 1977 338 2910 -123 194 -361
450 -542 586 -318 238 -652 380 -1040 444 -142 23 -435 34 -570 20z m1800
-1125 c56 -29 60 -50 60 -315 0 -196 -3 -246 -15 -270 -33 -64 80 -60 -1635
-60 -1715 0 -1602 -4 -1635 60 -22 43 -22 497 0 540 33 63 -81 59 1633 60
1378 0 1566 -2 1592 -15z m0 -860 c56 -29 60 -50 60 -315 0 -196 -3 -246 -15
-270 -33 -64 80 -60 -1635 -60 -1715 0 -1602 -4 -1635 60 -22 43 -22 497 0
540 33 63 -81 59 1633 60 1378 0 1566 -2 1592 -15z m0 -860 c56 -29 60 -50 60
-315 0 -196 -3 -246 -15 -270 -33 -64 80 -60 -1635 -60 -1715 0 -1602 -4
-1635 60 -22 43 -22 497 0 540 33 63 -81 59 1633 60 1378 0 1566 -2 1592 -15z"/>
</g>
</svg>
